<svg xmlns="http://www.w3.org/2000/svg" width="114.189" height="71.502" viewBox="0 0 114.189 71.502">
  <g id="Grupo_6225" data-name="Grupo 6225" transform="translate(-831.441 -6030)">
    <g id="Grupo_4121" data-name="Grupo 4121" transform="translate(831.537 6030)">
      <g id="Grupo_4120" data-name="Grupo 4120">
        <g id="Grupo_4119" data-name="Grupo 4119">
          <g id="Grupo_4118" data-name="Grupo 4118">
            <g id="Grupo_4117" data-name="Grupo 4117">
              <rect id="Rectángulo_2086" data-name="Rectángulo 2086" width="15.307" height="15.009" transform="translate(14.861 15.01)" fill="#9b0e21"/>
              <path id="Trazado_31" data-name="Trazado 31" d="M901.132,6052.642c0,7.045-5.463,10.328-13.716,10.172.156,0,.119-20.594.134-20.6,8.461-.269,13.58,3.411,13.581,10.424m14.989-.181c0-11.228-8.064-22.45-27.423-22.457l-16.1,0v45.03h16.165c19.29,0,27.354-11.141,27.354-22.569" transform="translate(-821.066 -6030)" fill="#005c1c"/>
              <rect id="Rectángulo_2087" data-name="Rectángulo 2087" width="15.009" height="45.029" transform="translate(99.084)" fill="#005c1c"/>
              <rect id="Rectángulo_2088" data-name="Rectángulo 2088" width="15.009" height="45.029" transform="translate(30.019)" fill="#005c1c"/>
              <rect id="Rectángulo_2089" data-name="Rectángulo 2089" width="15.009" height="45.029" fill="#005c1c"/>
            </g>
          </g>
        </g>
      </g>
    </g>
    <g id="Grupo_4122" data-name="Grupo 4122" transform="translate(831.441 6086.257)">
      <path id="Trazado_32" data-name="Trazado 32" d="M831.441,6087.943l1.52-1.8a6.217,6.217,0,0,0,4.1,1.672c1.711,0,2.617-.753,2.617-1.78,0-1.31-1.007-1.661-2.442-2.266l-2.021-.878c-1.544-.6-3.137-1.744-3.137-3.9,0-2.34,2.106-4.144,5.108-4.144a6.782,6.782,0,0,1,4.708,1.871l-1.337,1.66a5.209,5.209,0,0,0-3.5-1.256c-1.4,0-2.337.627-2.337,1.714,0,1.144,1.174,1.563,2.508,2.075l1.929.839c1.871.719,3.195,1.836,3.195,3.959,0,2.389-2.012,4.379-5.449,4.379A7.979,7.979,0,0,1,831.441,6087.943Z" transform="translate(-831.441 -6074.848)" fill="#606465"/>
      <path id="Trazado_33" data-name="Trazado 33" d="M845.65,6075.063h9.428v2.2h-6.813v3.761h5.77v2.2h-5.77v4.347H855.3v2.2H845.65Z" transform="translate(-827.826 -6074.793)" fill="#606465"/>
      <path id="Trazado_34" data-name="Trazado 34" d="M858.794,6082.511c0-4.834,2.854-7.663,6.668-7.663a5.625,5.625,0,0,1,4.178,1.832l-1.46,1.629a3.5,3.5,0,0,0-2.718-1.185c-2.337,0-3.955,2.015-3.955,5.31,0,3.355,1.411,5.383,4,5.383a2.939,2.939,0,0,0,1.972-.64V6084h-2.519v-2.138h4.892v6.487a6.6,6.6,0,0,1-4.5,1.743C861.626,6090.091,858.794,6087.39,858.794,6082.511Z" transform="translate(-824.483 -6074.848)" fill="#606465"/>
      <path id="Trazado_35" data-name="Trazado 35" d="M872.806,6084.049v-9.094h2.63v9.287c0,2.383.98,3.412,2.544,3.412s2.59-1.029,2.59-3.412v-9.287h2.523v9.094c0,4.012-1.887,5.879-5.113,5.879S872.806,6088.062,872.806,6084.049Z" transform="translate(-820.918 -6074.821)" fill="#606465"/>
      <path id="Trazado_36" data-name="Trazado 36" d="M886.265,6075.063h4.916c3.049,0,5.42,1.08,5.42,4.367,0,3.161-2.371,4.595-5.42,4.595H888.9v5.743h-2.63Zm4.646,6.87c2.013,0,3.108-.845,3.108-2.5,0-1.686-1.1-2.275-3.108-2.275H888.9v4.779Zm1.67-.176,4.589,8.01h-2.938l-3.549-6.441Z" transform="translate(-817.495 -6074.793)" fill="#606465"/>
      <path id="Trazado_37" data-name="Trazado 37" d="M899.706,6082.4c0-4.833,2.372-7.554,5.784-7.554s5.783,2.721,5.783,7.554c0,4.926-2.372,7.689-5.783,7.689S899.706,6087.328,899.706,6082.4Zm8.875,0c0-3.372-1.219-5.278-3.091-5.278s-3.092,1.907-3.092,5.278c0,3.464,1.22,5.414,3.092,5.414S908.581,6085.866,908.581,6082.4Z" transform="translate(-814.075 -6074.848)" fill="#606465"/>
      <path id="Trazado_38" data-name="Trazado 38" d="M913.67,6087.943l1.52-1.8a6.217,6.217,0,0,0,4.1,1.672c1.711,0,2.617-.753,2.617-1.78,0-1.31-1.007-1.661-2.442-2.266l-2.021-.878c-1.544-.6-3.137-1.744-3.137-3.9,0-2.34,2.106-4.144,5.108-4.144a6.78,6.78,0,0,1,4.708,1.871l-1.336,1.66a5.214,5.214,0,0,0-3.5-1.256c-1.4,0-2.337.627-2.337,1.714,0,1.144,1.174,1.563,2.508,2.075l1.929.839c1.872.719,3.195,1.836,3.195,3.959,0,2.389-2.012,4.379-5.449,4.379A7.979,7.979,0,0,1,913.67,6087.943Z" transform="translate(-810.523 -6074.848)" fill="#606465"/>
    </g>
  </g>
</svg>
